# xmcd CD database file
#
# Track frame offsets:
#	150
#	30910
#	57028
#	77912
#	100288
#	152388
#	174101
#	225585
#	253806
#	271228
#
# Disc length: 4006 seconds
#
# Revision: 0
# Processed by: cddbd v1.5.1PL0 Copyright (c) Steve Scherf et al.
# Submitted via: CDex 1.50Beta5
#
DISCID=6a0fa40a
DTITLE=Chet Baker - Almost Blue-The Best Of Chet Baker CD 2
DYEAR=1900
DGENRE=Jazz
TTITLE0=Beatrice
TTITLE1=My Ideal
TTITLE2=Soultrane
TTITLE3=Gnid
TTITLE4=My Funny Valentine
TTITLE5=Once I loved
TTITLE6=I´m a fool to want you
TTITLE7=Theme for freddy
TTITLE8=Send in the clowns
TTITLE9=In your own sweet way
EXTD=
EXTT0=
EXTT1=
EXTT2=
EXTT3=
EXTT4=
EXTT5=
EXTT6=
EXTT7=
EXTT8=
EXTT9=
PLAYORDER=
